<?xml version="1.0" standalone="no"?><!DOCTYPE svg PUBLIC "-//W3C//DTD SVG 1.1//EN" "http://www.w3.org/Graphics/SVG/1.1/DTD/svg11.dtd"><svg t="1594995826955" class="icon" viewBox="0 0 1024 1024" version="1.1" xmlns="http://www.w3.org/2000/svg" p-id="2510" xmlns:xlink="http://www.w3.org/1999/xlink" width="500" height="500"><defs><style type="text/css"></style></defs><path d="M383.904024 1.023744v95.873632A541.56061 541.56061 0 0 1 768.422294 255.936016a541.253487 541.253487 0 0 1 159.294577 384.15996h95.976006c0-353.03814-286.443589-639.225794-639.84004-639.225794L383.904024 1.023744z" fill="#d81e06" p-id="2511"></path><path d="M383.904024 192.771007v95.873632c93.979705 0 182.380005 36.547663 248.820995 102.988653a349.096726 349.096726 0 0 1 103.091027 248.565058h95.976006c0-247.08063-200.551462-447.427343-447.888028-447.427343z m95.976006 191.747263l-63.984004 63.932817L191.952012 512.383904 0 927.870432l25.337666 25.286479 232.7994-232.543464a63.88163 63.88163 0 0 1 106.981254-61.731767 63.88163 63.88163 0 0 1-61.782954 106.981254L70.63834 998.304024l25.337666 25.337666 415.896026-191.798451 63.984004-223.688078 63.984004-63.984004-159.96001-159.755261 0.051187 0.051187z" fill="#d81e06" p-id="2512"></path></svg>