<?xml version="1.0" standalone="no"?><!DOCTYPE svg PUBLIC "-//W3C//DTD SVG 1.1//EN" "http://www.w3.org/Graphics/SVG/1.1/DTD/svg11.dtd"><svg t="1594996420057" class="icon" viewBox="0 0 1024 1024" version="1.1" xmlns="http://www.w3.org/2000/svg" p-id="8699" xmlns:xlink="http://www.w3.org/1999/xlink" width="500" height="500"><defs><style type="text/css"></style></defs><path d="M16 240v448h32v320h928V688h32V240zM320 16v224h64V80h256v160h64V16z" fill="#B08A77" p-id="8700"></path><path d="M416 608h192v160H416z" fill="#FFFFFF" p-id="8701"></path><path d="M992 224H720V32a32 32 0 0 0-32-32H336a32 32 0 0 0-32 32v192H32a32 32 0 0 0-32 32v416a32 32 0 0 0 32 32v288a32 32 0 0 0 32 32h896a32 32 0 0 0 32-32V704a32 32 0 0 0 32-32V256a32 32 0 0 0-32-32zM336 32h352v192h-32V64H368v160h-32V32z m288 64v128H400V96h224z m336 896H64V704h336v48a32 32 0 0 0 32 32h160a32 32 0 0 0 32-32v-48h336v288zM432 752v-128h160v128H432z m560-80H624v-48a32 32 0 0 0-32-32H432a32 32 0 0 0-32 32v48H32V256h960v416z m-528 48h96v-64h-96v64zM96 320h832a16 16 0 1 0 0-32H96a16 16 0 1 0 0 32z" fill="#2B3139" p-id="8702"></path><path d="M112 672a16 16 0 0 0-16 16v256a16 16 0 1 0 32 0V688a16 16 0 0 0-16-16z m800 0a16 16 0 0 0-16 16v256a16 16 0 1 0 32 0V688a16 16 0 0 0-16-16z" fill="#2B3139" p-id="8703"></path></svg>