<?xml version="1.0" standalone="no"?><!DOCTYPE svg PUBLIC "-//W3C//DTD SVG 1.1//EN" "http://www.w3.org/Graphics/SVG/1.1/DTD/svg11.dtd"><svg t="1615451311776" class="icon" viewBox="0 0 1024 1024" version="1.1" xmlns="http://www.w3.org/2000/svg" p-id="2310" xmlns:xlink="http://www.w3.org/1999/xlink" width="192" height="192"><defs><style type="text/css"></style></defs><path d="M661.333333 448c23.466667 0 42.666667 19.2 42.666667 42.666667s-19.2 42.666667-42.666667 42.666666-42.666667-19.2-42.666666-42.666666 19.2-42.666667 42.666666-42.666667zM701.866667 266.666667c-6.4-29.866667-42.666667-53.333333-83.2-53.333334-36.266667 0-68.266667 17.066667-81.066667 42.666667H531.2c-10.666667-25.6-42.666667-42.666667-81.066667-42.666667-42.666667 0-76.8 23.466667-83.2 53.333334s14.933333 29.866667 32 40.533333c14.933333 8.533333 32 12.8 53.333334 12.8 25.6 0 49.066667-8.533333 64-21.333333v85.333333c0 12.8 8.533333 21.333333 21.333333 21.333333s21.333333-8.533333 21.333333-21.333333v-85.333333c14.933333 12.8 38.4 21.333333 61.866667 21.333333 19.2 0 38.4-4.266667 53.333333-12.8 12.8-10.666667 34.133333-10.666667 27.733334-40.533333z" fill="#FFB724" p-id="2311"></path><path d="M544 64c-181.333333 0-330.666667 162.133333-330.666667 362.666667v6.4l-53.333333 115.2c-2.133333 4.266667-2.133333 10.666667 0 17.066666 2.133333 4.266667 6.4 10.666667 10.666667 12.8l85.333333 40.533334v151.466666c0 12.8 8.533333 21.333333 21.333333 21.333334h106.666667v149.333333c0 12.8 8.533333 21.333333 21.333333 21.333333h298.666667c12.8 0 21.333333-8.533333 21.333333-21.333333v-209.066667c93.866667-68.266667 149.333333-181.333333 149.333334-302.933333 0-202.666667-149.333333-364.8-330.666667-364.8z m155.733333 631.466667l-8.533333 6.4c-6.4 4.266667-8.533333 10.666667-8.533333 17.066666v198.4h-256v-149.333333c0-12.8-8.533333-21.333333-21.333334-21.333333h-106.666666v-142.933334c0-8.533333-4.266667-14.933333-12.8-19.2l-78.933334-36.266666 46.933334-100.266667c2.133333-2.133333 2.133333-6.4 2.133333-8.533333v-10.666667c0-177.066667 130.133333-320 288-320s288 142.933333 288 320c0 106.666667-49.066667 206.933333-132.266667 266.666667z" fill="#3A3E46" p-id="2312"></path><path d="M629.333333 362.666667h-192c-17.066667 0-32 14.933333-32 32v64c0 53.333333 42.666667 96 96 96h64c53.333333 0 96-42.666667 96-96v-64c0-17.066667-14.933333-32-32-32z m-10.666666 42.666666v27.733334h-170.666667v-27.733334h170.666667z m-53.333334 106.666667h-64c-29.866667 0-53.333333-23.466667-53.333333-53.333333v-4.266667h170.666667v4.266667c0 29.866667-23.466667 53.333333-53.333334 53.333333z" fill="#3A3E46" p-id="2313"></path></svg>